<?xml version="1.0" encoding="utf-8"?>
<!-- Generator: Adobe Illustrator 24.3.0, SVG Export Plug-In . SVG Version: 6.00 Build 0)  -->
<svg version="1.0" id="katman_1" xmlns="http://www.w3.org/2000/svg" xmlns:xlink="http://www.w3.org/1999/xlink" x="0px" y="0px"
	 viewBox="0 0 673 496" style="enable-background:new 0 0 673 496;" xml:space="preserve">
<style type="text/css">
	.st0{fill-rule:evenodd;clip-rule:evenodd;fill:#002855;}
	.st1{fill-rule:evenodd;clip-rule:evenodd;fill:#00B3F0;}
</style>
<path id="Fill-1" class="st0" d="M178.14,140.7v60.67c-10.78-7.85-23.93-12.51-38.18-12.51c-36.42,0-65.94,30.16-65.94,67.37
	c0,37.21,29.52,67.38,65.94,67.38c15.27,0,29.29-5.36,40.46-14.26c2.33,7.99,11.77,12.68,20.39,13.57h18.97V140.7H178.14z
	 M141.7,286.56c-16.29,0-29.5-13.58-29.5-30.32c0-16.74,13.21-30.32,29.5-30.32c16.29,0,29.5,13.57,29.5,30.32
	C171.2,272.99,157.99,286.56,141.7,286.56L141.7,286.56z"/>
<polygon id="Fill-2" class="st0" points="399.84,322.67 441.76,322.67 441.76,141.66 399.84,141.66 "/>
<path id="Fill-3" class="st0" d="M326.48,294.52c-16.28,0-29.6-12.82-29.6-28.49v-50.04c0-15.21-12.93-27.65-28.73-27.65h-23.6
	v79.37C244.55,327.36,326.48,341.74,326.48,294.52"/>
<path id="Fill-4" class="st1" d="M325.53,216.06c0-15.25,12.95-27.72,28.77-27.72h23.63v51.6c0,36.38-27.12,55.97-52.4,55.08V216.06
	"/>
<path id="Fill-5" class="st0" d="M575.05,187.38c-8.87,0.92-17.49,7.42-19.16,15.76v56.01c0,0.81-0.04,1.58-0.04,2.34
	c0,14.95-12.65,23.12-21.68,23.12c-8.98,0-20.15-8.17-20.15-23.16c0-1.22-0.15-2.5-0.15-3.85v-53.05
	c-1.1-9.01-11.45-16.2-20.8-17.17h-22.72v70.22c0,22.36,5.88,36.78,17.47,48.34c11.63,11.59,27.23,17.47,46.36,17.47
	c7.2,0,13.98-1.21,20.17-3.6c2.41-0.93,4.68-2.02,6.81-3.26c-0.64,6.04-2.95,13.74-7.02,17.76c-4.82,4.76-11.35,7.08-19.96,7.08
	c-8.39,0-15.03-3-20.17-9.12h-41.57l0.09,0.25c4.95,13.16,12.9,23.79,23.62,31.6c10.82,7.9,23.62,11.9,38.03,11.9
	c12.07,0,23.09-2.81,32.76-8.35c9.65-5.54,17.33-13.25,22.83-22.91c5.47-9.62,8.24-20.43,8.24-32.13V187.38H575.05"/>
<polyline id="Fill-6" class="st1" points="105.81,352.2 105.81,360.95 98.44,360.95 98.44,352.2 93.07,352.2 93.07,375.06 
	98.44,375.06 98.44,365.98 105.81,365.98 105.81,375.06 111.17,375.06 111.17,352.2 105.81,352.2 "/>
<polyline id="Fill-7" class="st1" points="119.75,352.2 119.75,375.06 134.99,375.06 134.99,370.03 125.29,370.03 125.29,365.98 
	133.95,365.98 133.95,361.02 125.29,361.02 125.29,357.23 134.82,357.23 134.82,352.2 119.75,352.2 "/>
<path id="Fill-8" class="st1" d="M149.66,352.2l-8,22.86h5.89l1.18-3.59h8.74l1.18,3.59h5.88l-8-22.86H149.66z M153.09,358.18
	l2.76,8.4h-5.51L153.09,358.18L153.09,358.18z"/>
<polyline id="Fill-9" class="st1" points="171.19,352.2 171.19,375.06 185.48,375.06 185.48,370.03 176.77,370.03 176.77,352.2 
	171.19,352.2 "/>
<polyline id="Fill-10" class="st1" points="189.3,352.2 189.3,357.23 195.56,357.23 195.56,375.06 201.13,375.06 201.13,357.23 
	207.4,357.23 207.4,352.2 189.3,352.2 "/>
<polyline id="Fill-11" class="st1" points="226.8,352.2 226.8,360.95 219.43,360.95 219.43,352.2 214.07,352.2 214.07,375.06 
	219.43,375.06 219.43,365.98 226.8,365.98 226.8,375.06 232.17,375.06 232.17,352.2 226.8,352.2 "/>
<path id="Fill-12" class="st1" d="M258.04,352.2l-8.72,22.86h3.31l1.9-5.13h10.53l1.91,5.13h3.31l-8.73-22.86H258.04z
	 M259.78,355.82l4.21,11.27h-8.39L259.78,355.82L259.78,355.82z"/>
<polyline id="Fill-13" class="st1" points="292.81,352.2 292.81,369.25 280.47,352.2 277.9,352.2 277.9,375.06 281.08,375.06 
	281.08,357.98 293.43,375.06 296,375.06 296,352.2 292.81,352.2 "/>
<path id="Fill-14" class="st1" d="M307.79,372.19h6.24c2.47,0,4.49-0.81,6.06-2.45c1.57-1.66,2.36-3.69,2.36-6.11
	c0-2.42-0.79-4.45-2.36-6.11c-1.57-1.63-3.59-2.45-6.06-2.45h-6.24V372.19z M304.57,352.2h9.46c3.28,0,6.02,1.11,8.21,3.33
	c2.2,2.2,3.29,4.9,3.29,8.1c0,3.18-1.1,5.89-3.29,8.13c-2.19,2.2-4.93,3.3-8.21,3.3h-9.46V352.2L304.57,352.2z"/>
<path id="Fill-15" class="st1" d="M353.31,375.06c-3.6,0-6.6-1.13-8.99-3.4c-2.37-2.27-3.55-5.1-3.55-8.51
	c0-3.4,1.18-6.23,3.55-8.47c2.37-2.29,5.36-3.44,8.99-3.44c2.16,0,4.15,0.47,5.99,1.43c1.84,0.95,3.28,2.24,4.34,3.87l-4.75,2.62
	c-0.53-0.9-1.27-1.59-2.25-2.08c-0.98-0.49-2.09-0.73-3.32-0.73c-2.16,0-3.87,0.62-5.13,1.86c-1.26,1.22-1.89,2.87-1.89,4.94
	c0,2.07,0.63,3.72,1.89,4.94c1.26,1.24,2.97,1.87,5.13,1.87c1.22,0,2.32-0.25,3.32-0.75c1-0.5,1.75-1.19,2.25-2.06l4.75,2.62
	c-1.03,1.64-2.47,2.93-4.3,3.88C357.5,374.59,355.49,375.06,353.31,375.06"/>
<path id="Fill-16" class="st1" d="M377.36,352.2l-8.01,22.86h5.89l1.18-3.59h8.74l1.18,3.59h5.88l-8-22.86H377.36z M380.79,358.18
	l2.76,8.4h-5.51L380.79,358.18L380.79,358.18z"/>
<path id="Fill-17" class="st1" d="M409.23,357.1h-4.02v5.88h4.02c0.74,0,1.37-0.28,1.89-0.85c0.53-0.57,0.79-1.26,0.79-2.09
	c0-0.83-0.26-1.52-0.79-2.09C410.6,357.38,409.96,357.1,409.23,357.1 M417.94,375.06h-5.76l-4.43-7.51h-2.55v7.51h-5.36V352.2h9.39
	c2.24,0,4.14,0.76,5.7,2.29c1.57,1.52,2.35,3.37,2.35,5.55c0,1.37-0.4,2.66-1.19,3.86c-0.79,1.2-1.84,2.12-3.14,2.78L417.94,375.06"
	/>
<polyline id="Fill-18" class="st1" points="425.56,352.2 425.56,375.06 440.81,375.06 440.81,370.03 431.11,370.03 431.11,365.98 
	439.76,365.98 439.76,361.02 431.11,361.02 431.11,357.23 440.63,357.23 440.63,352.2 425.56,352.2 "/>
</svg>
